<?xml version="1.0" standalone="no"?>
<!DOCTYPE svg PUBLIC "-//W3C//DTD SVG 20010904//EN"
 "http://www.w3.org/TR/2001/REC-SVG-20010904/DTD/svg10.dtd">
<svg version="1.0" xmlns="http://www.w3.org/2000/svg"
 width="816.000000pt" height="816.000000pt" viewBox="0 0 816.000000 816.000000"
 preserveAspectRatio="xMidYMid meet">
<metadata>
Created by potrace 1.11, written by Peter Selinger 2001-2013
</metadata>
<g transform="translate(0.000000,816.000000) scale(0.100000,-0.100000)"
fill="#000000" stroke="none">
<path d="M0 4080 l0 -4080 4080 0 4080 0 0 4080 0 4080 -4080 0 -4080 0 0
-4080z m5910 974 c115 -21 190 -43 190 -57 0 -7 -14 -72 -32 -145 -30 -122
-34 -133 -53 -127 -101 29 -145 36 -240 42 -291 16 -448 -80 -531 -322 -24
-71 -28 -99 -32 -241 -5 -189 10 -287 62 -399 47 -99 102 -157 194 -202 75
-38 77 -38 196 -38 106 0 128 3 174 24 l52 23 0 169 c0 167 0 169 -22 173 -23
5 -313 36 -335 36 -10 0 -13 28 -13 105 l0 105 325 0 325 0 0 -392 0 -393 -48
-33 c-66 -45 -172 -87 -272 -109 -122 -26 -347 -24 -451 5 -208 56 -356 178
-449 369 -71 145 -92 247 -97 473 -4 172 -2 207 17 300 77 374 321 605 689
650 84 10 242 3 351 -16z m-2066 -466 c273 -385 342 -489 396 -597 35 -72 67
-131 71 -131 3 0 -2 53 -12 118 -16 101 -18 184 -19 595 l0 477 160 0 160 0 0
-885 0 -885 -124 0 -124 0 -327 462 c-272 385 -338 485 -396 601 -39 76 -73
137 -76 134 -2 -3 5 -77 17 -164 19 -145 21 -195 18 -588 l-3 -430 -162 -3
-163 -2 0 885 0 886 127 -3 126 -3 331 -467z m3618 -398 c170 -476 311 -873
314 -882 5 -17 -8 -18 -174 -18 l-179 0 -70 193 -69 192 -270 3 -269 2 -66
-192 -66 -193 -171 -3 -171 -2 53 152 c40 114 541 1522 571 1606 3 9 35 12
132 10 l127 -3 308 -865z m-6365 455 c139 -240 249 -441 275 -503 23 -56 45
-99 49 -95 3 5 23 52 43 107 23 64 112 237 256 497 l221 399 155 0 154 0 0
-880 0 -880 -170 0 -170 0 0 469 c0 357 4 502 16 610 8 78 13 152 11 164 -4
26 3 42 -71 -148 -37 -93 -103 -221 -235 -452 l-183 -323 -53 0 -53 0 -197
330 c-163 273 -207 355 -254 473 -30 78 -57 134 -59 125 -2 -9 8 -96 22 -194
25 -168 26 -197 26 -615 l0 -439 -165 0 -165 0 0 880 0 881 157 -3 157 -3 233
-400z m1833 -475 l0 -880 -175 0 -175 0 0 873 c0 481 3 877 7 880 3 4 82 7
175 7 l168 0 0 -880z"/>
<path d="M6990 4498 c-13 -68 -51 -213 -86 -322 -35 -110 -64 -203 -64 -208 0
-4 81 -8 180 -8 99 0 180 3 180 7 0 4 -29 95 -64 202 -38 116 -73 248 -87 324
-12 70 -26 127 -30 127 -4 0 -17 -55 -29 -122z"/>
</g>
</svg>
